<svg width="328" height="128" viewBox="0 0 328 128" fill="none" xmlns="http://www.w3.org/2000/svg">
<path d="M62.8927 53.2C61.816 51.2167 60.2577 49.715 58.2177 48.695C56.2344 47.6183 53.8827 47.08 51.1627 47.08C46.4594 47.08 42.691 48.6383 39.8577 51.755C37.0244 54.815 35.6077 58.9233 35.6077 64.08C35.6077 69.5767 37.081 73.8833 40.0277 77C43.031 80.06 47.1394 81.59 52.3527 81.59C55.9227 81.59 58.926 80.6833 61.3627 78.87C63.856 77.0567 65.6694 74.45 66.8027 71.05H48.3577V60.34H79.9777V73.855C78.901 77.4817 77.0594 80.8533 74.4527 83.97C71.9027 87.0867 68.6444 89.6083 64.6777 91.535C60.711 93.4617 56.2344 94.425 51.2477 94.425C45.3544 94.425 40.0844 93.15 35.4377 90.6C30.8477 87.9933 27.2494 84.395 24.6427 79.805C22.0927 75.215 20.8177 69.9733 20.8177 64.08C20.8177 58.1867 22.0927 52.945 24.6427 48.355C27.2494 43.7083 30.8477 40.11 35.4377 37.56C40.0277 34.9533 45.2694 33.65 51.1627 33.65C58.3027 33.65 64.3094 35.3783 69.1827 38.835C74.1127 42.2917 77.371 47.08 78.9577 53.2H62.8927ZM214.291 45.89C217.634 45.89 220.553 46.57 223.046 47.93C225.596 49.29 227.551 51.075 228.911 53.285V46.57H243.446V93.915C243.446 98.2783 242.568 102.217 240.811 105.73C239.111 109.3 236.476 112.133 232.906 114.23C229.393 116.327 225.001 117.375 219.731 117.375C212.704 117.375 207.009 115.703 202.646 112.36C198.283 109.073 195.789 104.597 195.166 98.93H209.531C209.984 100.743 211.061 102.16 212.761 103.18C214.461 104.257 216.558 104.795 219.051 104.795C222.054 104.795 224.434 103.917 226.191 102.16C228.004 100.46 228.911 97.7117 228.911 93.915V87.2C227.494 89.41 225.539 91.2233 223.046 92.64C220.553 94 217.634 94.68 214.291 94.68C210.381 94.68 206.839 93.6883 203.666 91.705C200.493 89.665 197.971 86.8033 196.101 83.12C194.288 79.38 193.381 75.0733 193.381 70.2C193.381 65.3267 194.288 61.0483 196.101 57.365C197.971 53.6817 200.493 50.8483 203.666 48.865C206.839 46.8817 210.381 45.89 214.291 45.89ZM228.911 70.285C228.911 66.6583 227.891 63.7967 225.851 61.7C223.868 59.6033 221.431 58.555 218.541 58.555C215.651 58.555 213.186 59.6033 211.146 61.7C209.163 63.74 208.171 66.5733 208.171 70.2C208.171 73.8267 209.163 76.7167 211.146 78.87C213.186 80.9667 215.651 82.015 218.541 82.015C221.431 82.015 223.868 80.9667 225.851 78.87C227.891 76.7733 228.911 73.9117 228.911 70.285Z" fill="#4285F4"/>
<path d="M109.619 94.68C104.972 94.68 100.779 93.6883 97.0388 91.705C93.3555 89.7217 90.4371 86.8883 88.2838 83.205C86.1871 79.5217 85.1388 75.215 85.1388 70.285C85.1388 65.4117 86.2155 61.1333 88.3688 57.45C90.5221 53.71 93.4688 50.8483 97.2088 48.865C100.949 46.8817 105.142 45.89 109.789 45.89C114.435 45.89 118.629 46.8817 122.369 48.865C126.109 50.8483 129.055 53.71 131.209 57.45C133.362 61.1333 134.439 65.4117 134.439 70.285C134.439 75.1583 133.334 79.465 131.124 83.205C128.97 86.8883 125.995 89.7217 122.199 91.705C118.459 93.6883 114.265 94.68 109.619 94.68ZM109.619 82.1C112.395 82.1 114.747 81.08 116.674 79.04C118.657 77 119.649 74.0817 119.649 70.285C119.649 66.4883 118.685 63.57 116.759 61.53C114.889 59.49 112.565 58.47 109.789 58.47C106.955 58.47 104.604 59.49 102.734 61.53C100.864 63.5133 99.9288 66.4317 99.9288 70.285C99.9288 74.0817 100.835 77 102.649 79.04C104.519 81.08 106.842 82.1 109.619 82.1ZM322.618 31.1V94H308.083V31.1H322.618Z" fill="#DB4437"/>
<path d="M163.74 94.68C159.093 94.68 154.9 93.6883 151.16 91.705C147.477 89.7217 144.558 86.8883 142.405 83.205C140.308 79.5217 139.26 75.215 139.26 70.285C139.26 65.4117 140.337 61.1333 142.49 57.45C144.643 53.71 147.59 50.8483 151.33 48.865C155.07 46.8817 159.263 45.89 163.91 45.89C168.557 45.89 172.75 46.8817 176.49 48.865C180.23 50.8483 183.177 53.71 185.33 57.45C187.483 61.1333 188.56 65.4117 188.56 70.285C188.56 75.1583 187.455 79.465 185.245 83.205C183.092 86.8883 180.117 89.7217 176.32 91.705C172.58 93.6883 168.387 94.68 163.74 94.68ZM163.74 82.1C166.517 82.1 168.868 81.08 170.795 79.04C172.778 77 173.77 74.0817 173.77 70.285C173.77 66.4883 172.807 63.57 170.88 61.53C169.01 59.49 166.687 58.47 163.91 58.47C161.077 58.47 158.725 59.49 156.855 61.53C154.985 63.5133 154.05 66.4317 154.05 70.285C154.05 74.0817 154.957 77 156.77 79.04C158.64 81.08 160.963 82.1 163.74 82.1Z" fill="#F4B400"/>
<path d="M275.551 94.68C270.905 94.68 266.711 93.6883 262.971 91.705C259.288 89.7217 256.37 86.8883 254.216 83.205C252.12 79.5217 251.071 75.215 251.071 70.285C251.071 65.4117 252.148 61.1333 254.301 57.45C256.455 53.71 259.401 50.8483 263.141 48.865C266.881 46.8817 271.075 45.89 275.721 45.89C280.368 45.89 284.561 46.8817 288.301 48.865C292.041 50.8483 294.988 53.71 297.141 57.45C299.295 61.1333 300.371 65.4117 300.371 70.285C300.371 75.1583 299.266 79.465 297.056 83.205C294.903 86.8883 291.928 89.7217 288.131 91.705C284.391 93.6883 280.198 94.68 275.551 94.68ZM275.551 82.1C278.328 82.1 280.68 81.08 282.606 79.04C284.59 77 285.581 74.0817 285.581 70.285C285.581 66.4883 284.618 63.57 282.691 61.53C280.821 59.49 278.498 58.47 275.721 58.47C272.888 58.47 270.536 59.49 268.666 61.53C266.796 63.5133 265.861 66.4317 265.861 70.285C265.861 74.0817 266.768 77 268.581 79.04C270.451 81.08 272.775 82.1 275.551 82.1Z" fill="#0F9D58"/>
</svg>
